<svg width="30" height="30" viewBox="0 0 30 30" fill="none" xmlns="http://www.w3.org/2000/svg">
  <g clip-path="url(#clip0_1_132)">
    <path d="M12.3249 22.5C12.1535 22.4995 11.984 22.4637 11.827 22.3949C11.6701 22.326 11.5289 22.2257 11.4124 22.1L5.33736 15.6375C5.11027 15.3955 4.98862 15.0732 4.99917 14.7415C5.00439 14.5772 5.04191 14.4156 5.10959 14.2659C5.17727 14.1162 5.27378 13.9812 5.39361 13.8688C5.51344 13.7563 5.65425 13.6686 5.80799 13.6105C5.96173 13.5525 6.12539 13.5253 6.28964 13.5306C6.62134 13.5411 6.93527 13.683 7.16236 13.925L12.3124 19.4125L22.8249 7.91251C22.9315 7.77966 23.0643 7.67003 23.2149 7.59034C23.3655 7.51065 23.5308 7.46259 23.7006 7.44911C23.8704 7.43563 24.0413 7.45701 24.2025 7.51195C24.3638 7.56688 24.5122 7.65421 24.6385 7.76857C24.7648 7.88292 24.8664 8.02189 24.937 8.17694C25.0076 8.33199 25.0458 8.49984 25.0492 8.67018C25.0527 8.84053 25.0212 9.00977 24.9568 9.16752C24.8924 9.32527 24.7965 9.46819 24.6749 9.58751L13.2499 22.0875C13.1344 22.2155 12.9938 22.3181 12.8367 22.3891C12.6797 22.4601 12.5097 22.4979 12.3374 22.5H12.3249Z" fill="#892EE0"/>
  </g>
  <defs>
    <clipPath id="clip0_1_132">
      <rect width="30" height="30" fill="white"/>
    </clipPath>
  </defs>
</svg>