<svg width="31" height="30" viewBox="0 0 31 30" fill="none" xmlns="http://www.w3.org/2000/svg">
  <g clip-path="url(#clip0_1_258)">
    <path d="M8.15021 20.25C9.88139 20.25 11.2848 18.8509 11.2848 17.125C11.2848 15.3992 9.88139 14.0001 8.15021 14.0001C6.41903 14.0001 5.01562 15.3992 5.01562 17.125C5.01562 18.8509 6.41903 20.25 8.15021 20.25Z" fill="#892EE0"/>
    <path d="M6.26904 21.125V27.25L8.14985 25.375L10.0306 27.25V21.125C9.40369 21.375 8.77674 21.5 8.14978 21.5C7.52282 21.5 6.896 21.375 6.26904 21.125Z" fill="#892EE0"/>
    <path d="M27.5846 2.75H2.50769C1.12843 2.75 0 3.87503 0 5.25V21.5C0 22.875 1.12843 24 2.50769 24H5.01538V20.125C4.26308 19.375 3.76154 18.25 3.76154 17.125C3.76154 14.7501 5.76769 12.75 8.15003 12.75C10.5324 12.75 12.5385 14.75 12.5385 17.125C12.5385 18.375 12.037 19.375 11.2847 20.125V24H27.5846C28.9638 24 30.0923 22.875 30.0923 21.5V5.25C30.0923 3.87503 28.9638 2.75 27.5846 2.75ZM26.3308 17.75H18.8077V16.5H26.3308V17.75ZM26.3308 14H15.0462V12.75H26.3308V14ZM26.3308 10.25H3.76154V9H26.3308V10.25Z" fill="#892EE0"/>
  </g>
  <defs>
    <clipPath id="clip0_1_258">
      <rect width="30.0923" height="30" fill="white"/>
    </clipPath>
  </defs>
</svg>