<svg width="30" height="30" viewBox="0 0 30 30" fill="none" xmlns="http://www.w3.org/2000/svg">
  <path d="M19.7655 30C19.7655 30 22.4886 30 22.4886 27.2728V2.72716C22.4886 0 19.7655 0 19.7655 0H10.2348C10.2348 0 7.51172 0 7.51172 2.72716V27.2728C7.51176 30 10.2348 30 10.2348 30H19.7655ZM15.0002 28.8645C14.2486 28.8645 13.6387 28.2545 13.6387 27.503C13.6387 26.7514 14.2486 26.1414 15.0002 26.1414C15.7518 26.1414 16.3617 26.7514 16.3617 27.503C16.3617 28.2545 15.7518 28.8645 15.0002 28.8645ZM12.9579 1.66242C12.9579 1.4936 13.0382 1.36152 13.1389 1.36152H16.8613C16.9607 1.36152 17.0424 1.49633 17.0424 1.66242V1.74277C17.0424 1.91159 16.9607 2.04367 16.8613 2.04367H13.1389C13.0395 2.04367 12.9579 1.90886 12.9579 1.74277V1.66242ZM8.87327 3.40383H21.1271V25.1883H8.87327V3.40383Z" fill="#892EE0"/>
</svg>