<svg width="25" height="23" viewBox="0 0 25 23" fill="none" xmlns="http://www.w3.org/2000/svg">
<path d="M10.4617 4.67687C11.4449 2.22562 11.9366 1 12.782 1C13.6274 1 14.119 2.22562 15.1023 4.67687L15.1481 4.79102C15.7035 6.17585 15.9813 6.86827 16.5474 7.28913C17.1134 7.70999 17.8565 7.77654 19.3426 7.90964L19.6113 7.9337C22.0436 8.15153 23.2597 8.26044 23.5199 9.03417C23.7802 9.8079 22.877 10.6296 21.0707 12.2729L20.4678 12.8214C19.5535 13.6533 19.0963 14.0693 18.8832 14.6144C18.8434 14.7161 18.8104 14.8203 18.7843 14.9263C18.6442 15.4946 18.7781 16.098 19.0458 17.3049L19.1292 17.6805C19.6213 19.8985 19.8673 21.0074 19.4377 21.4857C19.2772 21.6645 19.0685 21.7932 18.8368 21.8564C18.2165 22.0257 17.3359 21.3081 15.5747 19.873C14.4183 18.9306 13.84 18.4595 13.1762 18.3535C12.915 18.3118 12.6489 18.3118 12.3878 18.3535C11.7239 18.4595 11.1457 18.9306 9.98922 19.873C8.22803 21.3081 7.34744 22.0257 6.72718 21.8564C6.49541 21.7932 6.28677 21.6645 6.12624 21.4857C5.69665 21.0074 5.94269 19.8985 6.43478 17.6805L6.51813 17.3049C6.78589 16.098 6.91977 15.4946 6.7797 14.9263C6.75357 14.8203 6.72053 14.7161 6.68078 14.6144C6.46769 14.0693 6.01049 13.6533 5.09611 12.8214L4.49326 12.2729C2.68696 10.6296 1.7838 9.8079 2.04403 9.03417C2.30425 8.26044 3.52038 8.15153 5.95265 7.9337L6.22132 7.90964C7.70747 7.77654 8.45054 7.70999 9.0166 7.28913C9.58266 6.86827 9.86041 6.17585 10.4159 4.79102L10.4617 4.67687Z" stroke="#892EE0" stroke-width="2"/>
</svg>
